<?xml version="1.0" standalone="no"?>
<!DOCTYPE svg PUBLIC "-//W3C//DTD SVG 20010904//EN"
 "http://www.w3.org/TR/2001/REC-SVG-20010904/DTD/svg10.dtd">
<svg version="1.0" xmlns="http://www.w3.org/2000/svg"
 width="1045.000000pt" height="1045.000000pt" viewBox="0 0 1045.000000 1045.000000"
 preserveAspectRatio="xMidYMid meet">
<metadata>
Created by potrace 1.11, written by Peter Selinger 2001-2013
</metadata>
<g transform="translate(0.000000,1045.000000) scale(0.100000,-0.100000)"
fill="#000000" stroke="none">
<path d="M4865 10409 c-778 -49 -1620 -313 -2295 -719 -403 -242 -681 -459
-1010 -789 -217 -217 -351 -371 -512 -588 -1007 -1358 -1285 -3121 -748 -4733
152 -455 405 -953 678 -1337 856 -1199 2132 -1972 3567 -2158 890 -116 1798 0
2630 334 298 120 704 339 980 529 1088 747 1866 1904 2139 3183 71 336 105
624 113 984 19 828 -151 1619 -507 2361 -652 1360 -1877 2376 -3336 2768 -272
73 -497 114 -834 152 -166 19 -659 26 -865 13z"/>
</g>
</svg>
